<svg width="92" height="48" viewBox="0 0 92 48" fill="none" xmlns="http://www.w3.org/2000/svg">
<rect x="1" y="1" width="90" height="46" rx="3" stroke="#D9D9D9" stroke-width="2"/>
<rect x="10" y="8" width="26" height="5" fill="#D9D9D9"/>
<rect x="10" y="19" width="33" height="4" rx="1" fill="#D9D9D9"/>
<rect x="10" y="19" width="10" height="4" rx="1" fill="#A0A0A0"/>
<rect x="10" y="33" width="33" height="4" rx="1" fill="#D9D9D9"/>
<rect x="10" y="33" width="21" height="4" rx="1" fill="#A0A0A0"/>
<rect x="10" y="26" width="33" height="4" rx="1" fill="#D9D9D9"/>
<rect x="10" y="26" width="28" height="4" rx="1" fill="#A0A0A0"/>
<rect x="52" y="19" width="30" height="2" fill="#D9D9D9"/>
<rect x="52" y="23" width="30" height="2" fill="#D9D9D9"/>
<rect x="52" y="27" width="30" height="2" fill="#D9D9D9"/>
<rect x="52" y="31" width="30" height="2" fill="#D9D9D9"/>
<rect x="52" y="35" width="10" height="2" fill="#D9D9D9"/>
<rect x="62" y="35" width="10" height="2" fill="#D9D9D9"/>
</svg>
