<svg width="92" height="50" viewBox="0 0 92 50" fill="none" xmlns="http://www.w3.org/2000/svg">
<rect x="1" y="1" width="90" height="48" rx="3" stroke="#D9D9D9" stroke-width="2"/>
<rect x="10" y="8" width="26" height="5" fill="#D9D9D9"/>
<path d="M21.3021 39.1064C22.0567 40.2979 23.9433 40.2979 24.6979 39.1064L35.7344 21.6809C36.489 20.4894 35.5457 19 34.0365 19H11.9635C10.4543 19 9.51096 20.4894 10.2656 21.6809L21.3021 39.1064Z" fill="#D9D9D9"/>
<path d="M12.8324 25.5638H33.3246M16.9221 32.1362L29.0778 32.1362M11.9635 19H34.0365C35.5457 19 36.489 20.4894 35.7344 21.6809L24.6979 39.1064C23.9433 40.2979 22.0567 40.2979 21.3021 39.1064L10.2656 21.6809C9.51096 20.4894 10.4543 19 11.9635 19Z" stroke="#F5F5F5"/>
<rect x="45" y="20.5" width="37" height="2" fill="#D9D9D9"/>
<rect x="45" y="24.5" width="37" height="2" fill="#D9D9D9"/>
<rect x="45" y="28.5" width="37" height="2" fill="#D9D9D9"/>
<rect x="45" y="32.5" width="37" height="2" fill="#D9D9D9"/>
<rect x="45" y="36.5" width="12.3333" height="2" fill="#D9D9D9"/>
<rect x="57.3333" y="36.5" width="12.3333" height="2" fill="#D9D9D9"/>
</svg>
