<svg width="92" height="57" viewBox="0 0 92 57" fill="none" xmlns="http://www.w3.org/2000/svg">
<rect x="1" y="1" width="90" height="55" rx="3" stroke="#D9D9D9" stroke-width="2"/>
<rect x="10" y="8" width="26" height="5" fill="#D9D9D9"/>
<path d="M15.4492 19.4545L16.7691 21.6854H16.8203L18.1466 19.4545H19.7095L17.7119 22.7273L19.7542 26H18.1626L16.8203 23.766H16.7691L15.4268 26H13.8416L15.8902 22.7273L13.8799 19.4545H15.4492ZM24.1296 24.7727V24.4276C24.1296 24.1655 24.185 23.9247 24.2958 23.7053C24.4087 23.4837 24.5717 23.3068 24.7847 23.1747C24.9999 23.0405 25.262 22.9734 25.571 22.9734C25.8842 22.9734 26.1473 23.0394 26.3604 23.1715C26.5756 23.3036 26.7375 23.4805 26.8462 23.7021C26.957 23.9215 27.0124 24.1634 27.0124 24.4276V24.7727C27.0124 25.0348 26.957 25.2766 26.8462 25.4982C26.7354 25.7177 26.5724 25.8935 26.3572 26.0256C26.142 26.1598 25.8799 26.2269 25.571 26.2269C25.2578 26.2269 24.9946 26.1598 24.7815 26.0256C24.5685 25.8935 24.4065 25.7177 24.2958 25.4982C24.185 25.2766 24.1296 25.0348 24.1296 24.7727ZM25.0596 24.4276V24.7727C25.0596 24.924 25.0958 25.0668 25.1683 25.201C25.2428 25.3352 25.3771 25.4023 25.571 25.4023C25.7649 25.4023 25.897 25.3363 25.9673 25.2042C26.0397 25.0721 26.0759 24.9283 26.0759 24.7727V24.4276C26.0759 24.272 26.0418 24.1271 25.9737 23.9929C25.9055 23.8587 25.7712 23.7915 25.571 23.7915C25.3792 23.7915 25.246 23.8587 25.1715 23.9929C25.0969 24.1271 25.0596 24.272 25.0596 24.4276ZM20.7705 21.027V20.6818C20.7705 20.4176 20.827 20.1758 20.9399 19.9563C21.0529 19.7347 21.2159 19.5579 21.4289 19.4258C21.6441 19.2937 21.9041 19.2276 22.2087 19.2276C22.5241 19.2276 22.7883 19.2937 23.0014 19.4258C23.2144 19.5579 23.3764 19.7347 23.4872 19.9563C23.598 20.1758 23.6534 20.4176 23.6534 20.6818V21.027C23.6534 21.2912 23.5969 21.533 23.484 21.7525C23.3732 21.9719 23.2102 22.1477 22.995 22.2798C22.7819 22.4098 22.5198 22.4748 22.2087 22.4748C21.8977 22.4748 21.6345 22.4087 21.4193 22.2766C21.2063 22.1424 21.0443 21.9666 20.9335 21.7493C20.8249 21.5298 20.7705 21.2891 20.7705 21.027ZM21.707 20.6818V21.027C21.707 21.1825 21.7432 21.3263 21.8156 21.4585C21.8902 21.5906 22.0212 21.6566 22.2087 21.6566C22.4048 21.6566 22.5379 21.5906 22.6083 21.4585C22.6807 21.3263 22.7169 21.1825 22.7169 21.027V20.6818C22.7169 20.5263 22.6828 20.3814 22.6146 20.2472C22.5465 20.1129 22.4112 20.0458 22.2087 20.0458C22.0191 20.0458 21.8881 20.114 21.8156 20.2504C21.7432 20.3867 21.707 20.5305 21.707 20.6818ZM21.1924 26L25.6924 19.4545H26.5298L22.0298 26H21.1924Z" fill="#A0A0A0"/>
<rect x="10" y="33" width="21.3333" height="2" fill="#D9D9D9"/>
<rect x="10" y="37" width="21.3333" height="2" fill="#D9D9D9"/>
<rect x="10" y="41" width="21.3333" height="2" fill="#D9D9D9"/>
<rect x="10" y="45" width="7.11111" height="2" fill="#D9D9D9"/>
<rect x="17.1111" y="45" width="7.11111" height="2" fill="#D9D9D9"/>
<path d="M40.7825 19.4545L42.1024 21.6854H42.1536L43.4799 19.4545H45.0428L43.0453 22.7273L45.0875 26H43.4959L42.1536 23.766H42.1024L40.7601 26H39.1749L41.2235 22.7273L39.2132 19.4545H40.7825ZM49.4629 24.7727V24.4276C49.4629 24.1655 49.5183 23.9247 49.6291 23.7053C49.742 23.4837 49.905 23.3068 50.1181 23.1747C50.3333 23.0405 50.5953 22.9734 50.9043 22.9734C51.2175 22.9734 51.4806 23.0394 51.6937 23.1715C51.9089 23.3036 52.0708 23.4805 52.1795 23.7021C52.2903 23.9215 52.3457 24.1634 52.3457 24.4276V24.7727C52.3457 25.0348 52.2903 25.2766 52.1795 25.4982C52.0687 25.7177 51.9057 25.8935 51.6905 26.0256C51.4753 26.1598 51.2132 26.2269 50.9043 26.2269C50.5911 26.2269 50.3279 26.1598 50.1149 26.0256C49.9018 25.8935 49.7399 25.7177 49.6291 25.4982C49.5183 25.2766 49.4629 25.0348 49.4629 24.7727ZM50.3929 24.4276V24.7727C50.3929 24.924 50.4291 25.0668 50.5016 25.201C50.5762 25.3352 50.7104 25.4023 50.9043 25.4023C51.0982 25.4023 51.2303 25.3363 51.3006 25.2042C51.373 25.0721 51.4092 24.9283 51.4092 24.7727V24.4276C51.4092 24.272 51.3752 24.1271 51.307 23.9929C51.2388 23.8587 51.1046 23.7915 50.9043 23.7915C50.7125 23.7915 50.5793 23.8587 50.5048 23.9929C50.4302 24.1271 50.3929 24.272 50.3929 24.4276ZM46.1039 21.027V20.6818C46.1039 20.4176 46.1603 20.1758 46.2732 19.9563C46.3862 19.7347 46.5492 19.5579 46.7622 19.4258C46.9774 19.2937 47.2374 19.2276 47.5421 19.2276C47.8574 19.2276 48.1216 19.2937 48.3347 19.4258C48.5477 19.5579 48.7097 19.7347 48.8205 19.9563C48.9313 20.1758 48.9867 20.4176 48.9867 20.6818V21.027C48.9867 21.2912 48.9302 21.533 48.8173 21.7525C48.7065 21.9719 48.5435 22.1477 48.3283 22.2798C48.1152 22.4098 47.8531 22.4748 47.5421 22.4748C47.231 22.4748 46.9678 22.4087 46.7526 22.2766C46.5396 22.1424 46.3776 21.9666 46.2668 21.7493C46.1582 21.5298 46.1039 21.2891 46.1039 21.027ZM47.0403 20.6818V21.027C47.0403 21.1825 47.0765 21.3263 47.149 21.4585C47.2235 21.5906 47.3546 21.6566 47.5421 21.6566C47.7381 21.6566 47.8713 21.5906 47.9416 21.4585C48.014 21.3263 48.0502 21.1825 48.0502 21.027V20.6818C48.0502 20.5263 48.0161 20.3814 47.948 20.2472C47.8798 20.1129 47.7445 20.0458 47.5421 20.0458C47.3524 20.0458 47.2214 20.114 47.149 20.2504C47.0765 20.3867 47.0403 20.5305 47.0403 20.6818ZM46.5257 26L51.0257 19.4545H51.8631L47.3631 26H46.5257Z" fill="#A0A0A0"/>
<rect x="35.3333" y="33" width="21.3333" height="2" fill="#D9D9D9"/>
<rect x="35.3333" y="37" width="21.3333" height="2" fill="#D9D9D9"/>
<rect x="35.3333" y="41" width="21.3333" height="2" fill="#D9D9D9"/>
<rect x="35.3333" y="45" width="7.11111" height="2" fill="#D9D9D9"/>
<rect x="42.4444" y="45" width="7.11111" height="2" fill="#D9D9D9"/>
<path d="M66.1158 19.4545L67.4358 21.6854H67.4869L68.8133 19.4545H70.3761L68.3786 22.7273L70.4209 26H68.8293L67.4869 23.766H67.4358L66.0935 26H64.5082L66.5569 22.7273L64.5466 19.4545H66.1158ZM74.7962 24.7727V24.4276C74.7962 24.1655 74.8516 23.9247 74.9624 23.7053C75.0754 23.4837 75.2384 23.3068 75.4514 23.1747C75.6666 23.0405 75.9287 22.9734 76.2377 22.9734C76.5509 22.9734 76.814 23.0394 77.0271 23.1715C77.2423 23.3036 77.4042 23.4805 77.5129 23.7021C77.6237 23.9215 77.6791 24.1634 77.6791 24.4276V24.7727C77.6791 25.0348 77.6237 25.2766 77.5129 25.4982C77.4021 25.7177 77.2391 25.8935 77.0239 26.0256C76.8087 26.1598 76.5466 26.2269 76.2377 26.2269C75.9244 26.2269 75.6613 26.1598 75.4482 26.0256C75.2352 25.8935 75.0732 25.7177 74.9624 25.4982C74.8516 25.2766 74.7962 25.0348 74.7962 24.7727ZM75.7263 24.4276V24.7727C75.7263 24.924 75.7625 25.0668 75.835 25.201C75.9095 25.3352 76.0438 25.4023 76.2377 25.4023C76.4315 25.4023 76.5636 25.3363 76.634 25.2042C76.7064 25.0721 76.7426 24.9283 76.7426 24.7727V24.4276C76.7426 24.272 76.7085 24.1271 76.6403 23.9929C76.5722 23.8587 76.4379 23.7915 76.2377 23.7915C76.0459 23.7915 75.9127 23.8587 75.8381 23.9929C75.7636 24.1271 75.7263 24.272 75.7263 24.4276ZM71.4372 21.027V20.6818C71.4372 20.4176 71.4937 20.1758 71.6066 19.9563C71.7195 19.7347 71.8825 19.5579 72.0956 19.4258C72.3108 19.2937 72.5707 19.2276 72.8754 19.2276C73.1908 19.2276 73.455 19.2937 73.668 19.4258C73.8811 19.5579 74.043 19.7347 74.1538 19.9563C74.2646 20.1758 74.32 20.4176 74.32 20.6818V21.027C74.32 21.2912 74.2636 21.533 74.1506 21.7525C74.0399 21.9719 73.8769 22.1477 73.6617 22.2798C73.4486 22.4098 73.1865 22.4748 72.8754 22.4748C72.5644 22.4748 72.3012 22.4087 72.086 22.2766C71.8729 22.1424 71.711 21.9666 71.6002 21.7493C71.4916 21.5298 71.4372 21.2891 71.4372 21.027ZM72.3737 20.6818V21.027C72.3737 21.1825 72.4099 21.3263 72.4823 21.4585C72.5569 21.5906 72.6879 21.6566 72.8754 21.6566C73.0715 21.6566 73.2046 21.5906 73.2749 21.4585C73.3474 21.3263 73.3836 21.1825 73.3836 21.027V20.6818C73.3836 20.5263 73.3495 20.3814 73.2813 20.2472C73.2131 20.1129 73.0778 20.0458 72.8754 20.0458C72.6858 20.0458 72.5548 20.114 72.4823 20.2504C72.4099 20.3867 72.3737 20.5305 72.3737 20.6818ZM71.8591 26L76.3591 19.4545H77.1965L72.6965 26H71.8591Z" fill="#A0A0A0"/>
<rect x="60.6667" y="33" width="21.3333" height="2" fill="#D9D9D9"/>
<rect x="60.6667" y="37" width="21.3333" height="2" fill="#D9D9D9"/>
<rect x="60.6667" y="41" width="21.3333" height="2" fill="#D9D9D9"/>
<rect x="60.6667" y="45" width="7.11111" height="2" fill="#D9D9D9"/>
<rect x="67.7778" y="45" width="7.11111" height="2" fill="#D9D9D9"/>
</svg>
